<svg xmlns="http://www.w3.org/2000/svg" version="1.1" width="718px" height="717px" style="shape-rendering:geometricPrecision; text-rendering:geometricPrecision; image-rendering:optimizeQuality; fill-rule:evenodd; clip-rule:evenodd" xmlns:xlink="http://www.w3.org/1999/xlink">
<g><path style="opacity:1" fill="#f2ad61" d="M -0.5,0.5 C -0.5,0.166667 -0.5,-0.166667 -0.5,-0.5C 238.833,-0.5 478.167,-0.5 717.5,-0.5C 717.5,-0.166667 717.5,0.166667 717.5,0.5C 691.5,25.8333 665.833,51.5 640.5,77.5C 452.5,77.5 264.5,77.5 76.5,77.5C 51.1667,51.5 25.5,25.8333 -0.5,0.5 Z"/></g>
<g><path style="opacity:0.997" fill="#d3883e" d="M -0.5,0.5 C 25.5,25.8333 51.1667,51.5 76.5,77.5C 76.5,120.167 76.5,162.833 76.5,205.5C 76.5,256.833 76.5,308.167 76.5,359.5C 76.5,384.833 76.5,410.167 76.5,435.5C 76.5,502.167 76.5,568.833 76.5,635.5C 76.5,637.5 76.5,639.5 76.5,641.5C 51.1667,666.167 26.1667,691.167 1.5,716.5C 0.833333,716.5 0.166667,716.5 -0.5,716.5C -0.5,477.833 -0.5,239.167 -0.5,0.5 Z"/></g>
<g><path style="opacity:1" fill="#d3883e" d="M 717.5,0.5 C 717.5,239.167 717.5,477.833 717.5,716.5C 716.833,716.5 716.167,716.5 715.5,716.5C 690.833,691.167 665.833,666.167 640.5,641.5C 640.5,639.5 640.5,637.5 640.5,635.5C 640.5,509.167 640.5,382.833 640.5,256.5C 640.5,230.833 640.5,205.167 640.5,179.5C 640.5,145.5 640.5,111.5 640.5,77.5C 665.833,51.5 691.5,25.8333 717.5,0.5 Z"/></g>
<g><path style="opacity:1" fill="#aedcfe" d="M 76.5,77.5 C 264.5,77.5 452.5,77.5 640.5,77.5C 640.5,111.5 640.5,145.5 640.5,179.5C 616.343,179.929 596.676,189.429 581.5,208C 555.539,201.15 534.872,208.65 519.5,230.5C 477.319,230.645 449.819,250.645 437,290.5C 431.292,325.591 442.792,353.257 471.5,373.5C 446.944,399.557 421.278,424.39 394.5,448C 385.531,453.718 375.864,455.051 365.5,452C 326.377,432.938 287.377,413.605 248.5,394C 227.508,384.999 205.841,382.666 183.5,387C 176.393,388.621 169.393,390.621 162.5,393C 133.966,407.434 105.299,421.6 76.5,435.5C 76.5,410.167 76.5,384.833 76.5,359.5C 113.168,359.667 149.835,359.5 186.5,359C 214.179,352.656 228.845,335.323 230.5,307C 226.986,276.653 209.986,259.819 179.5,256.5C 177.336,241.335 168.67,233.002 153.5,231.5C 147.519,231.919 141.852,233.085 136.5,235C 121.196,215.849 101.196,206.015 76.5,205.5C 76.5,162.833 76.5,120.167 76.5,77.5 Z"/></g>
<g><path style="opacity:1" fill="#fe832e" d="M 366.5,115.5 C 376.577,114.792 384.41,118.459 390,126.5C 400.59,121.074 409.59,123.074 417,132.5C 418.989,136.253 419.822,140.253 419.5,144.5C 431.634,144.799 438.634,150.966 440.5,163C 440.123,166.843 439.123,170.51 437.5,174C 439.798,176.593 442.298,179.093 445,181.5C 448.286,188.807 448.286,196.14 445,203.5C 442.434,206.066 439.934,208.566 437.5,211C 443.155,222.689 440.488,232.022 429.5,239C 426.243,240.043 422.91,240.543 419.5,240.5C 419.115,252.885 412.782,259.885 400.5,261.5C 396.556,261.519 392.889,260.519 389.5,258.5C 382.526,268.748 373.193,271.581 361.5,267C 358.041,264.918 355.374,262.085 353.5,258.5C 341.383,264.614 331.883,261.948 325,250.5C 323.801,247.274 323.301,243.941 323.5,240.5C 310.504,240.83 303.504,234.497 302.5,221.5C 302.481,217.556 303.481,213.889 305.5,210.5C 295.17,203.632 292.337,194.299 297,182.5C 299.709,179.622 302.542,176.956 305.5,174.5C 299.537,162.558 302.203,153.058 313.5,146C 316.726,144.801 320.059,144.301 323.5,144.5C 323.828,132.34 329.994,125.34 342,123.5C 345.886,123.684 349.553,124.684 353,126.5C 356.733,121.938 361.233,118.271 366.5,115.5 Z"/></g>
<g><path style="opacity:1" fill="#f9c13b" d="M 363.5,136.5 C 390.435,134.881 410.269,145.881 423,169.5C 432.845,197.968 426.012,221.468 402.5,240C 369.828,256.956 342.995,250.456 322,220.5C 307.366,188.2 314.866,162.367 344.5,143C 350.708,140.043 357.042,137.876 363.5,136.5 Z"/></g>
<g><path style="opacity:1" fill="#fefefe" d="M 640.5,179.5 C 640.5,205.167 640.5,230.833 640.5,256.5C 615.433,256.263 592.766,263.43 572.5,278C 566.167,283 559.833,288 553.5,293C 525.993,319.673 498.66,346.507 471.5,373.5C 442.792,353.257 431.292,325.591 437,290.5C 449.819,250.645 477.319,230.645 519.5,230.5C 534.872,208.65 555.539,201.15 581.5,208C 596.676,189.429 616.343,179.929 640.5,179.5 Z"/></g>
<g><path style="opacity:1" fill="#fefefe" d="M 76.5,205.5 C 101.196,206.015 121.196,215.849 136.5,235C 141.852,233.085 147.519,231.919 153.5,231.5C 168.67,233.002 177.336,241.335 179.5,256.5C 209.986,259.819 226.986,276.653 230.5,307C 228.845,335.323 214.179,352.656 186.5,359C 149.835,359.5 113.168,359.667 76.5,359.5C 76.5,308.167 76.5,256.833 76.5,205.5 Z"/></g>
<g><path style="opacity:1" fill="#14a085" d="M 640.5,256.5 C 640.5,382.833 640.5,509.167 640.5,635.5C 561.313,562.864 467.646,526.531 359.5,526.5C 250.498,525.707 156.164,562.041 76.5,635.5C 76.5,568.833 76.5,502.167 76.5,435.5C 105.299,421.6 133.966,407.434 162.5,393C 169.393,390.621 176.393,388.621 183.5,387C 205.841,382.666 227.508,384.999 248.5,394C 287.377,413.605 326.377,432.938 365.5,452C 375.864,455.051 385.531,453.718 394.5,448C 421.278,424.39 446.944,399.557 471.5,373.5C 498.66,346.507 525.993,319.673 553.5,293C 559.833,288 566.167,283 572.5,278C 592.766,263.43 615.433,256.263 640.5,256.5 Z"/></g>
<g><path style="opacity:1" fill="#95c24a" d="M 640.5,635.5 C 640.5,637.5 640.5,639.5 640.5,641.5C 452.5,641.5 264.5,641.5 76.5,641.5C 76.5,639.5 76.5,637.5 76.5,635.5C 156.164,562.041 250.498,525.707 359.5,526.5C 467.646,526.531 561.313,562.864 640.5,635.5 Z"/></g>
<g><path style="opacity:1" fill="#b97028" d="M 76.5,641.5 C 264.5,641.5 452.5,641.5 640.5,641.5C 665.833,666.167 690.833,691.167 715.5,716.5C 477.5,716.5 239.5,716.5 1.5,716.5C 26.1667,691.167 51.1667,666.167 76.5,641.5 Z"/></g>
</svg>
